<?xml version="1.0" standalone="no"?>
<!DOCTYPE svg PUBLIC "-//W3C//DTD SVG 20010904//EN"
 "http://www.w3.org/TR/2001/REC-SVG-20010904/DTD/svg10.dtd">
<svg version="1.0" xmlns="http://www.w3.org/2000/svg"
 width="256.000000pt" height="256.000000pt" viewBox="0 0 256.000000 256.000000"
 preserveAspectRatio="xMidYMid meet">
<metadata>
Created by potrace 1.16, written by Peter Selinger 2001-2019
</metadata>
<g transform="translate(0.000000,256.000000) scale(0.100000,-0.100000)"
fill="#000000" stroke="none">
<path d="M1164 2530 c-121 -69 -215 -231 -299 -517 -3 -8 -24 -6 -76 7 -250
65 -477 46 -580 -47 -54 -49 -73 -105 -66 -198 9 -124 91 -270 243 -434 l56
-61 -56 -61 c-152 -164 -234 -310 -243 -434 -10 -129 39 -207 163 -256 53 -21
74 -23 204 -22 117 1 165 6 248 25 70 17 105 21 107 14 56 -192 131 -356 201
-434 69 -78 133 -112 214 -112 54 0 74 5 116 30 121 69 215 231 299 517 3 8
24 6 76 -7 250 -65 477 -46 580 47 54 49 73 105 66 198 -9 124 -91 270 -243
434 l-56 61 56 61 c152 164 234 310 243 434 7 93 -12 149 -66 198 -103 93
-330 112 -580 47 -52 -13 -73 -15 -76 -7 -59 200 -131 357 -201 435 -69 78
-133 112 -214 112 -54 0 -74 -5 -116 -30z m186 -186 c64 -33 130 -118 191
-249 59 -126 62 -119 -68 -170 -61 -24 -130 -53 -152 -65 l-41 -20 -41 20
c-22 12 -91 41 -152 65 -131 52 -128 43 -63 179 105 219 213 299 326 240z
m-580 -437 c55 -11 65 -16 63 -32 -6 -51 -35 -272 -39 -292 -3 -14 -34 -45
-82 -79 -42 -32 -100 -77 -128 -101 -28 -23 -54 -43 -57 -43 -15 0 -122 151
-158 224 -53 108 -62 185 -27 235 33 48 68 71 130 86 68 17 214 18 298 2z
m1314 -1 c66 -16 101 -38 134 -87 35 -50 26 -127 -27 -235 -36 -73 -143 -224
-158 -224 -3 0 -29 20 -57 43 -28 24 -86 69 -128 101 -48 34 -79 65 -82 79 -4
20 -33 243 -39 292 -2 17 7 21 58 31 84 16 229 16 299 0z m-1039 -67 c39 -12
83 -28 99 -36 l29 -15 -74 -40 c-41 -22 -102 -57 -136 -79 -34 -21 -65 -39
-69 -39 -7 0 2 60 23 150 21 92 21 92 40 86 10 -3 50 -15 88 -27z m596 -50
c22 -93 32 -159 24 -159 -3 0 -34 18 -68 39 -34 22 -95 57 -136 79 -71 39 -73
40 -50 53 31 17 191 68 203 65 5 -1 17 -36 27 -77z m-230 -107 c69 -38 159
-92 201 -120 l75 -51 7 -115 c4 -64 4 -168 0 -232 l-7 -116 -96 -63 c-53 -34
-144 -88 -203 -120 l-108 -57 -107 57 c-60 32 -151 86 -204 120 l-96 63 -7
116 c-4 64 -4 168 0 232 l7 115 75 51 c68 46 319 188 332 188 3 0 62 -31 131
-68z m-625 -402 c0 -88 -3 -160 -6 -160 -10 0 -175 151 -175 160 0 9 165 160
175 160 3 0 6 -72 6 -160z m1085 84 c46 -42 84 -80 84 -84 0 -9 -165 -160
-175 -160 -3 0 -6 72 -6 160 0 88 3 160 6 160 4 0 44 -34 91 -76z m-1287 -207
c28 -24 86 -69 128 -101 48 -34 79 -65 82 -79 4 -20 33 -241 39 -292 2 -16 -8
-21 -63 -32 -138 -26 -319 -10 -379 34 -14 11 -37 35 -49 54 -35 50 -26 127
27 235 36 73 143 224 158 224 3 0 29 -20 57 -43z m1510 -28 c78 -99 136 -220
143 -295 4 -51 2 -64 -19 -93 -12 -19 -35 -43 -49 -54 -60 -44 -241 -60 -379
-34 -55 11 -65 16 -63 32 6 51 35 272 39 292 3 14 39 49 97 91 50 39 108 84
127 100 19 17 38 31 42 32 4 0 32 -32 62 -71z m-1131 -238 c34 -22 95 -57 136
-79 l74 -40 -29 -15 c-45 -23 -198 -68 -204 -59 -13 15 -56 232 -46 232 4 0
35 -18 69 -39z m703 2 c-13 -72 -40 -188 -46 -195 -6 -8 -159 36 -204 59 l-28
15 93 52 c52 28 112 64 134 78 53 36 58 35 51 -9z m-345 -194 c23 -11 91 -40
152 -64 131 -52 128 -43 63 -179 -166 -346 -346 -346 -512 0 -66 136 -69 126
71 182 66 27 134 56 150 65 37 20 29 21 76 -4z"/>
<path d="M1165 1555 c-195 -80 -246 -336 -96 -486 54 -54 137 -89 211 -89 120
0 237 81 279 193 42 114 16 234 -68 318 -86 87 -211 111 -326 64z"/>
</g>
</svg>
